<?xml version="1.0" encoding="UTF-8"?>
<svg version="1.1" xmlns="http://www.w3.org/2000/svg" width="600" height="600">
<path d="M0 0 C198 0 396 0 600 0 C600 198 600 396 600 600 C402 600 204 600 0 600 C0 402 0 204 0 0 Z " fill="#FEFEFE" transform="translate(0,0)"/>
<path d="M0 0 C2.23466299 1.54371044 4.04464077 3.09748832 6 5 C9.45154106 3.34693377 12.54215795 1.35911792 15.70703125 -0.78125 C24.65253421 -5.53592959 36.58673422 -5.32170349 46.3359375 -3.3125 C55.94953998 -0.08103698 62.28877641 5.17057079 67.45703125 13.875 C74.76014737 28.66612125 74.0446799 41.81617726 69 57 C64.46897342 68.91060296 54.78563407 81.56247788 43 87 C43 87.66 43 88.32 43 89 C41.29945424 90.23372928 39.59464413 91.46224863 37.86328125 92.65234375 C34.72233636 94.92409634 32.18406279 97.75328839 29.5234375 100.5546875 C14.04528901 116.47297291 14.04528901 116.47297291 6.671875 117.43359375 C2.18980891 116.9043285 0.24973505 115.18189577 -2.75 112.0625 C-3.78520835 111.04817008 -4.82302549 110.03649659 -5.86328125 109.02734375 C-6.38229004 108.51800293 -6.90129883 108.00866211 -7.43603516 107.48388672 C-10.61836724 104.4644964 -14.09363088 101.79449496 -17.52734375 99.0703125 C-20.18009819 96.84920688 -22.56957557 94.46099581 -25 92 C-26.59283136 90.52929437 -28.1970452 89.070819 -29.8125 87.625 C-30.68390625 86.83996094 -31.5553125 86.05492187 -32.453125 85.24609375 C-33.9814054 83.89830045 -35.5282522 82.57055053 -37.109375 81.28515625 C-49.97282667 70.76285279 -57.39680042 56.18215016 -59.25390625 39.75390625 C-59.82110975 28.61110195 -56.37348162 16.43663478 -49 8 C-36.86836691 -5.38287776 -15.93053128 -8.79410281 0 0 Z " fill="#AF2C15" transform="translate(293,195)"/>
<path d="M0 0 C10.64910647 -0.06971393 21.29815805 -0.12291956 31.94744682 -0.15543652 C36.89310683 -0.17104824 41.83860995 -0.19220392 46.78417969 -0.22631836 C51.56284234 -0.25907271 56.3413547 -0.27688676 61.120121 -0.28463173 C62.93725065 -0.2901465 64.7543727 -0.30091509 66.57143784 -0.31719017 C80.1047085 -0.43351134 91.05849973 0.14259502 102 9 C108.72817369 15.72817369 112.12581913 24.25032736 112.1875 33.6875 C112.04603289 44.29753289 109.66808217 52.80094994 102.33203125 60.82421875 C90.58400045 71.49691492 76.60609716 71.2879631 61.62109375 71.1953125 C59.84033874 71.19157697 58.05958166 71.18873255 56.27882385 71.18673706 C51.61817637 71.17914307 46.95765583 71.15953147 42.29705811 71.1373291 C37.53073849 71.11677892 32.76439813 71.10771582 27.99804688 71.09765625 C18.66530916 71.07628116 9.33266519 71.042197 0 71 C0 70.34 0 69.68 0 69 C0.99 68.505 0.99 68.505 2 68 C3.04578596 64.86264211 3.1391583 62.63212539 3.16113281 59.33862305 C3.17074036 58.17699142 3.1803479 57.0153598 3.19024658 55.81852722 C3.19449646 54.56228043 3.19874634 53.30603363 3.203125 52.01171875 C3.20882507 50.72062698 3.21452515 49.42953522 3.22039795 48.09931946 C3.23089794 45.36479296 3.2367469 42.63029577 3.24023438 39.89575195 C3.24571192 36.40209213 3.26972776 32.90882344 3.29820633 29.41528606 C3.32138135 26.07243807 3.32328571 22.72964289 3.328125 19.38671875 C3.3404718 18.13654465 3.3528186 16.88637054 3.36553955 15.59831238 C3.3610379 13.84168022 3.3610379 13.84168022 3.35644531 12.04956055 C3.36191376 10.51092598 3.36191376 10.51092598 3.36749268 8.94120789 C2.93374132 5.46970219 1.70745055 3.02950643 0 0 Z " fill="#F8F8F8" transform="translate(389,340)"/>
<path d="M0 0 C3.66082837 2.94523435 6.10079162 6.24342441 8.625 10.1875 C8.295 10.8475 7.965 11.5075 7.625 12.1875 C5.975 11.1975 4.325 10.2075 2.625 9.1875 C3.615 13.6425 3.615 13.6425 4.625 18.1875 C4.13 17.1975 4.13 17.1975 3.625 16.1875 C3.17125 16.6825 2.7175 17.1775 2.25 17.6875 C0.625 19.1875 0.625 19.1875 -1.375 19.1875 C-1.32279297 20.56035156 -1.32279297 20.56035156 -1.26953125 21.9609375 C-1.24246094 23.14945313 -1.21539062 24.33796875 -1.1875 25.5625 C-1.13529297 27.33753906 -1.13529297 27.33753906 -1.08203125 29.1484375 C-1.17871094 30.15132812 -1.27539062 31.15421875 -1.375 32.1875 C-5.01803061 34.61618707 -8.01830365 34.66532135 -12.25 34.875 C-13.31154297 34.94557617 -13.31154297 34.94557617 -14.39453125 35.01757812 C-18.2297987 35.23540989 -21.6510749 35.15864125 -25.375 34.1875 C-25.375 34.8475 -25.375 35.5075 -25.375 36.1875 C-27.355 36.1875 -29.335 36.1875 -31.375 36.1875 C-31.045 37.1775 -30.715 38.1675 -30.375 39.1875 C-28.065 39.5175 -25.755 39.8475 -23.375 40.1875 C-23.375 42.1675 -23.375 44.1475 -23.375 46.1875 C-21.89 46.6825 -21.89 46.6825 -20.375 47.1875 C-22.355 46.8575 -24.335 46.5275 -26.375 46.1875 C-26.375 46.8475 -26.375 47.5075 -26.375 48.1875 C-20.105 48.5175 -13.835 48.8475 -7.375 49.1875 C-12.60275038 62.25687595 -24.7059371 72.25455127 -35.48046875 80.87109375 C-38.71034262 83.45586461 -41.88939065 86.09616099 -45.0625 88.75 C-45.59214355 89.19214844 -46.12178711 89.63429688 -46.66748047 90.08984375 C-47.90373235 91.12190248 -49.13943058 92.15462434 -50.375 93.1875 C-55.2643753 91.66820259 -58.43669146 88.83297894 -62.1875 85.5 C-62.80842529 84.95690186 -63.42935059 84.41380371 -64.0690918 83.85424805 C-65.29577755 82.78047725 -66.52022145 81.70413885 -67.7421875 80.625 C-69.70630589 78.895824 -71.69841917 77.20034329 -73.6875 75.5 C-91.06022727 60.13181818 -91.06022727 60.13181818 -94.375 50.1875 C-87.115 50.1875 -79.855 50.1875 -72.375 50.1875 C-72.519375 52.12625 -72.66375 54.065 -72.8125 56.0625 C-72.52283185 60.86155201 -72.52283185 60.86155201 -69.84841919 64.69000244 C-67.88181578 66.12293701 -65.87771146 67.39149259 -63.78515625 68.6328125 C-63.07621216 69.07761963 -62.36726807 69.52242676 -61.63684082 69.98071289 C-59.89517103 71.06953128 -58.13663585 72.13129061 -56.375 73.1875 C-56.36469254 72.45278473 -56.35438507 71.71806946 -56.34376526 70.96109009 C-56.24588317 64.04504708 -56.14338202 57.12908638 -56.03566074 50.21319008 C-55.98044085 46.65745791 -55.92702237 43.10171749 -55.87768555 39.54589844 C-55.82091832 35.46019398 -55.75637946 31.37464475 -55.69140625 27.2890625 C-55.67469376 26.00883209 -55.65798126 24.72860168 -55.64076233 23.40957642 C-55.62081711 22.22850311 -55.60087189 21.04742981 -55.58032227 19.83056641 C-55.56477798 18.78687897 -55.5492337 17.74319153 -55.53321838 16.6678772 C-55.375 14.1875 -55.375 14.1875 -54.375 12.1875 C-52.3125 11.5625 -52.3125 11.5625 -50.375 11.1875 C-51.035 11.1875 -51.695 11.1875 -52.375 11.1875 C-52.375 10.5275 -52.375 9.8675 -52.375 9.1875 C-53.365 8.8575 -54.355 8.5275 -55.375 8.1875 C-54.715 8.1875 -54.055 8.1875 -53.375 8.1875 C-53.3028125 7.43726563 -53.230625 6.68703125 -53.15625 5.9140625 C-51.69152894 0.80218602 -46.76244486 -1.25946096 -42.375 -3.8125 C-29.67832788 -10.77125299 -11.43307829 -7.89729296 0 0 Z " fill="#AE2D16" transform="translate(351.375,197.8125)"/>
<path d="M0 0 C4.08926849 -0.0750148 8.17826207 -0.12900317 12.26806641 -0.16479492 C13.65485627 -0.17973947 15.04160007 -0.20010278 16.42822266 -0.22631836 C29.06868759 -0.45904894 38.96315541 0.87493534 49 9 C55.72817369 15.72817369 59.12581913 24.25032736 59.1875 33.6875 C59.04603289 44.29753289 56.66808217 52.80094994 49.33203125 60.82421875 C42.05132231 67.43850125 34.56006227 70.13754124 24.828125 70.09765625 C23.8044986 70.09553383 23.8044986 70.09553383 22.76019287 70.09336853 C20.59008316 70.08779084 18.4200783 70.07524254 16.25 70.0625 C14.77474108 70.05748211 13.29948053 70.05291971 11.82421875 70.04882812 C8.21611202 70.03782875 4.60806625 70.02057953 1 70 C1.24398781 69.20580658 1.24398781 69.20580658 1.49290466 68.39556885 C2.11914097 65.43716618 2.11948101 62.69635226 2.11352539 59.67089844 C2.11344986 58.38987244 2.11337433 57.10884644 2.11329651 55.78900146 C2.10819026 54.39579225 2.10297427 53.00258343 2.09765625 51.609375 C2.09579032 50.18019663 2.09436724 48.75101762 2.09336853 47.32183838 C2.08955715 43.56699852 2.07973867 39.81219757 2.06866455 36.05737305 C2.05842075 32.22314988 2.05386455 28.38892041 2.04882812 24.5546875 C2.03811514 17.03644063 2.02105531 9.51822577 2 2 C1.34 2 0.68 2 0 2 C0 1.34 0 0.68 0 0 Z " fill="#090909" transform="translate(442,340)"/>
<path d="M0 0 C7.18972896 2.51640514 7.18972896 2.51640514 9.38671875 6.5390625 C14.96778979 21.93368968 13.61987296 36.38250836 6.8125 51.25 C1.54067173 60.96892267 -6.76914007 71.27980193 -17 76 C-17 76.66 -17 77.32 -17 78 C-18.70054576 79.23372928 -20.40535587 80.46224863 -22.13671875 81.65234375 C-25.27766364 83.92409634 -27.81593721 86.75328839 -30.4765625 89.5546875 C-45.95471099 105.47297291 -45.95471099 105.47297291 -53.328125 106.43359375 C-57.80977128 105.90437807 -59.7508943 104.18226823 -62.75 101.0625 C-63.78502756 100.04538859 -64.82284824 99.03111259 -65.86328125 98.01953125 C-66.38229004 97.50986816 -66.90129883 97.00020508 -67.43603516 96.47509766 C-69.80887028 94.23709113 -72.36882288 92.25710399 -74.9375 90.25 C-79.19258545 86.84102665 -82.05496674 83.5600515 -85 79 C-85.66 78.67 -86.32 78.34 -87 78 C-87.67375452 75.911361 -88 74.19636905 -88 72 C-88.99 72.99 -88.99 72.99 -90 74 C-90.5534764 71.92446352 -91 70.15634036 -91 68 C-89.46875 66.7109375 -89.46875 66.7109375 -87.5 65.375 C-86.8503125 64.92898438 -86.200625 64.48296875 -85.53125 64.0234375 C-85.0259375 63.68570313 -84.520625 63.34796875 -84 63 C-80.5767866 64.4165021 -79.17515341 66.06827149 -77 69 C-76.01 69.33 -75.02 69.66 -74 70 C-72.3125 71.375 -72.3125 71.375 -71 73 C-71 73.99 -71 74.98 -71 76 C-70.29875 76.0825 -69.5975 76.165 -68.875 76.25 C-65.33522612 77.17341927 -63.00288826 78.93551432 -60 81 C-56.53460307 82.65018901 -54.94569115 83 -51 83 C-48.5780776 81.4397543 -48.5780776 81.4397543 -46.125 79.25 C-45.16078125 78.43015625 -44.1965625 77.6103125 -43.203125 76.765625 C-42.68685547 76.31896484 -42.17058594 75.87230469 -41.63867188 75.41210938 C-39.93275611 73.94205324 -38.21047074 72.49316552 -36.484375 71.046875 C-20.63754181 57.84931504 -20.63754181 57.84931504 -9 41 C-16.26 41 -23.52 41 -31 41 C-30.01 40.67 -29.02 40.34 -28 40 C-28 39.34 -28 38.68 -28 38 C-28.99 37.67 -29.98 37.34 -31 37 C-28.03 37.495 -28.03 37.495 -25 38 C-25.185625 37.38125 -25.37125 36.7625 -25.5625 36.125 C-26 34 -26 34 -25 32 C-27.64 32 -30.28 32 -33 32 C-33 30.68 -33 29.36 -33 28 C-31.02 28 -29.04 28 -27 28 C-27 27.34 -27 26.68 -27 26 C-26.37955811 25.97494385 -25.75911621 25.9498877 -25.11987305 25.92407227 C-22.30887603 25.80803279 -19.49820759 25.68534241 -16.6875 25.5625 C-15.71103516 25.52318359 -14.73457031 25.48386719 -13.72851562 25.44335938 C-12.79072266 25.40146484 -11.85292969 25.35957031 -10.88671875 25.31640625 C-9.59060669 25.26141968 -9.59060669 25.26141968 -8.26831055 25.20532227 C-5.8352174 25.07252646 -5.8352174 25.07252646 -3 24 C-3.165 23.484375 -3.33 22.96875 -3.5 22.4375 C-4.35825695 18.25349738 -4.84592266 14.49043517 -2.6875 10.6875 C-1 9 -1 9 2 7 C1.34 4.69 0.68 2.38 0 0 Z " fill="#AE2D16" transform="translate(353,206)"/>
<path d="M0 0 C25.74 0 51.48 0 78 0 C77 3 77 3 75 4 C74.92384509 11.43808422 74.87135586 18.87606763 74.83520508 26.31445312 C74.82013214 28.84411374 74.79967039 31.37374829 74.77368164 33.90332031 C74.73723384 37.54238323 74.7202583 41.18110016 74.70703125 44.8203125 C74.69154739 45.94865509 74.67606354 47.07699768 74.66011047 48.23953247 C74.65869134 54.88229856 74.98907758 59.77059795 79.72265625 64.84765625 C83.00600395 66.50904145 85.77688498 66.43387204 89.4375 66.4375 C91.38462891 66.46650391 91.38462891 66.46650391 93.37109375 66.49609375 C97.61471643 65.91596449 99.11817607 65.13595302 102 62 C105.27136034 55.9926198 105.42602645 50.8199071 105.36328125 44.0625 C105.36377975 43.02359619 105.36427826 41.98469238 105.36479187 40.91430664 C105.36245953 38.72572916 105.35278084 36.53714858 105.33618164 34.34863281 C105.31257653 31.01082205 105.31562921 27.67381067 105.32226562 24.3359375 C105.31668847 22.20312027 105.30957835 20.07030638 105.30078125 17.9375 C105.30169266 16.94564697 105.30260406 15.95379395 105.30354309 14.93188477 C105.24903064 9.56829713 104.76765697 5.07382204 103 0 C106.96 0 110.92 0 115 0 C114.34 0.99 113.68 1.98 113 3 C112.68669574 5.21710772 112.68669574 5.21710772 112.71289062 7.69580078 C112.69276917 9.12341232 112.69276917 9.12341232 112.67224121 10.5798645 C112.66696411 11.60796234 112.66168701 12.63606018 112.65625 13.6953125 C112.6416272 14.7573288 112.62700439 15.81934509 112.61193848 16.9135437 C112.56537846 20.31732397 112.53124216 23.72104674 112.5 27.125 C112.45866953 31.5861473 112.40484172 36.04689698 112.34375 40.5078125 C112.3384729 41.52376495 112.3331958 42.53971741 112.32775879 43.5864563 C112.22486797 51.03159546 111.91259193 57.962354 107.875 64.375 C102.10148241 69.64647258 95.65098523 70.53831965 88.125 70.4375 C86.94417847 70.42722778 86.94417847 70.42722778 85.73950195 70.41674805 C77.99422764 70.20357536 72.19751167 68.51719004 66.0625 63.6875 C60.71647491 56.72146731 60.53776483 50.46993369 60.48828125 41.94140625 C60.47033005 40.79711655 60.45237885 39.65282684 60.43388367 38.47386169 C60.37991547 34.83677805 60.34592731 31.19982466 60.3125 27.5625 C60.27931513 25.08917464 60.24482439 22.61586643 60.20898438 20.14257812 C60.12419661 14.0951689 60.05578966 8.04774254 60 2 C59.34 2 58.68 2 58 2 C57.67 5.63 57.34 9.26 57 13 C56.34 13 55.68 13 55 13 C53.9790625 11.8553125 53.9790625 11.8553125 52.9375 10.6875 C47.78824572 5.97648013 41.73495198 5.09567675 35 4 C35.1075879 12.01479913 35.22023872 20.02950433 35.33933926 28.04413986 C35.39448462 31.76572513 35.44789102 35.48731837 35.49731445 39.20898438 C35.54508196 42.80112671 35.59742891 46.39317589 35.65294075 49.9852066 C35.67330828 51.35509163 35.69203046 52.72500214 35.70907402 54.09493256 C35.73324211 56.0148457 35.76382225 57.93467488 35.79467773 59.85449219 C35.81799416 61.49330353 35.81799416 61.49330353 35.84178162 63.16522217 C35.923527 66.22704666 35.923527 66.22704666 37 70 C31.06 70 25.12 70 19 70 C19.66 68.68 20.32 67.36 21 66 C21.32663284 63.09073811 21.32663284 63.09073811 21.31884766 59.85449219 C21.33871735 58.61350769 21.35858704 57.37252319 21.37905884 56.09393311 C21.39093424 54.74491555 21.40259715 53.39589611 21.4140625 52.046875 C21.43277907 50.66252494 21.45235285 49.27818622 21.4727478 47.89385986 C21.52402362 44.25747373 21.56367346 40.62105063 21.60089111 36.98449707 C21.64095945 33.27082203 21.69203884 29.55730017 21.7421875 25.84375 C21.83889283 18.56260518 21.92331463 11.28138611 22 4 C19.9072721 4.44973148 17.81648474 4.90849943 15.7265625 5.37109375 C14.56205566 5.62560303 13.39754883 5.8801123 12.19775391 6.14233398 C8.31232291 7.18444111 6.08685618 8.48177523 3 11 C2.01 11.66 1.02 12.32 0 13 C0 8.71 0 4.42 0 0 Z " fill="#161616" transform="translate(273,340)"/>
<path d="M0 0 C2.05985641 -0.16285834 4.1234569 -0.27878489 6.1875 -0.375 C7.33605469 -0.44460938 8.48460937 -0.51421875 9.66796875 -0.5859375 C13.49824357 0.0876161 14.4750652 1.25510282 16.8162384 4.24185181 C18.69526356 7.0326204 19.88000751 10.03637129 21.015625 13.1796875 C21.40153557 14.20249062 21.40153557 14.20249062 21.79524231 15.24595642 C22.62453877 17.4516836 23.43709622 19.66318583 24.25 21.875 C24.82227842 23.40238997 25.39577483 24.92932411 25.97045898 26.45581055 C28.58752456 33.42399841 31.15301993 40.41084615 33.70703125 47.40234375 C34.3107959 49.04323975 34.3107959 49.04323975 34.92675781 50.71728516 C35.66353049 52.72519658 36.39130578 54.73644118 37.10839844 56.75146484 C37.43485352 57.64430176 37.76130859 58.53713867 38.09765625 59.45703125 C38.37101807 60.21991455 38.64437988 60.98279785 38.92602539 61.76879883 C40.20504095 64.63932184 40.20504095 64.63932184 44 69 C38.06 69 32.12 69 26 69 C25.7525 67.411875 25.505 65.82375 25.25 64.1875 C24.31150256 58.93735491 22.75271073 54.17021672 20.8046875 49.21484375 C20 47 20 47 20 45 C10.1 45 0.2 45 -10 45 C-10.66 47.97 -11.32 50.94 -12 54 C-12.515625 55.175625 -13.03125 56.35125 -13.5625 57.5625 C-15.21868063 61.52293194 -15.626692 64.74428876 -16 69 C-19.63 69 -23.26 69 -27 69 C-26.505 68.01 -26.505 68.01 -26 67 C-25.34 67 -24.68 67 -24 67 C-23.59031982 65.73929688 -23.59031982 65.73929688 -23.17236328 64.453125 C-21.94892766 60.84956952 -20.61458427 57.2984846 -19.2421875 53.75 C-18.69686203 52.33230542 -18.15161778 50.9145796 -17.60644531 49.49682617 C-17.32337524 48.76192963 -17.04030518 48.02703308 -16.74865723 47.26986694 C-12.51412048 36.26802929 -8.29899226 25.25923372 -4.25 14.1875 C-3.76635986 12.87555664 -3.76635986 12.87555664 -3.27294922 11.53710938 C-1.88566922 7.71383634 -0.62249942 4.03805547 0 0 Z " fill="#0C0C0C" transform="translate(127,341)"/>
<path d="M0 0 C2.64 0 5.28 0 8 0 C9 1 9 1 9.12025452 3.36012268 C9.11803391 4.40603073 9.11581329 5.45193878 9.11352539 6.52954102 C9.11344986 7.71068985 9.11337433 8.89183868 9.11329651 10.10877991 C9.10813522 11.3941716 9.10297394 12.67956329 9.09765625 14.00390625 C9.0962413 15.31205795 9.09482635 16.62020966 9.09336853 17.96800232 C9.0895441 21.45162859 9.07971446 24.93521339 9.06866455 28.41882324 C9.05844882 31.97126708 9.05387056 35.52371759 9.04882812 39.07617188 C9.03809212 46.05079832 9.0210166 53.02539717 9 60 C10.75129657 58.89789095 12.50098464 57.79322568 14.25 56.6875 C15.22453125 56.07261719 16.1990625 55.45773437 17.203125 54.82421875 C18.12609375 54.22222656 19.0490625 53.62023437 20 53 C20.76602539 52.50266357 21.53205078 52.00532715 22.32128906 51.49291992 C24.38863309 49.96751076 24.38863309 49.96751076 24.609375 46.42578125 C24.6791013 45.05565951 24.72134285 43.68409546 24.75 42.3125 C24.8325 39.899375 24.915 37.48625 25 35 C32.59 35 40.18 35 48 35 C42.77224962 48.06937595 30.6690629 58.06705127 19.89453125 66.68359375 C16.66465738 69.26836461 13.48560935 71.90866099 10.3125 74.5625 C9.78285645 75.00464844 9.25321289 75.44679688 8.70751953 75.90234375 C7.47126765 76.93440248 6.23556942 77.96712434 5 79 C0.1106247 77.48070259 -3.06169146 74.64547894 -6.8125 71.3125 C-7.43342529 70.76940186 -8.05435059 70.22630371 -8.6940918 69.66674805 C-9.92077755 68.59297725 -11.14522145 67.51663885 -12.3671875 66.4375 C-14.33130589 64.708324 -16.32341917 63.01284329 -18.3125 61.3125 C-35.68522727 45.94431818 -35.68522727 45.94431818 -39 36 C-31.74 36 -24.48 36 -17 36 C-17.144375 37.93875 -17.28875 39.8775 -17.4375 41.875 C-16.41374532 51.27330135 -16.41374532 51.27330135 -1 59 C-0.67 39.53 -0.34 20.06 0 0 Z " fill="#FDFBF9" transform="translate(296,212)"/>
<path d="M0 0 C14.89534884 0 14.89534884 0 21.71484375 6.6796875 C29.21388005 14.93046093 30.50092087 23.20153607 30.26953125 34.07421875 C29.55385926 44.4981369 25.77144647 52.05141257 18 59 C11.97465238 63.51901072 8.56336367 62 0 62 C0 41.54 0 21.08 0 0 Z " fill="#FCFCFC" transform="translate(458,344)"/>
<path d="M0 0 C6.27 0 12.54 0 19 0 C19 0.66 19 1.32 19 2 C18.34 2 17.68 2 17 2 C16.92386083 9.72291745 16.87136242 17.44573788 16.83520508 25.16894531 C16.8201298 27.79560971 16.79966634 30.42224899 16.77368164 33.04882812 C16.73724424 36.82688604 16.72026062 40.60461077 16.70703125 44.3828125 C16.69154739 45.55490265 16.67606354 46.7269928 16.66011047 47.93460083 C16.65871959 54.6908837 16.88924173 59.71603692 21.75390625 64.8515625 C24.89070284 66.45542024 27.43047511 66.39745694 30.9375 66.375 C32.14277344 66.38273437 33.34804687 66.39046875 34.58984375 66.3984375 C38.23120854 65.97298594 40.09491978 65.18797033 43 63 C45.93395335 58.80863807 47.12010345 55.33851405 47.16113281 50.2565918 C47.17074036 49.29516769 47.1803479 48.33374359 47.19024658 47.34318542 C47.19449646 46.30567642 47.19874634 45.26816742 47.203125 44.19921875 C47.21167511 42.59552177 47.21167511 42.59552177 47.22039795 40.95942688 C47.22984816 38.69569895 47.23638201 36.43195727 47.24023438 34.16821289 C47.24993265 30.71150592 47.28095343 27.25539535 47.3125 23.79882812 C47.31903091 21.59896186 47.32428104 19.39909135 47.328125 17.19921875 C47.3404718 16.16778244 47.3528186 15.13634613 47.36553955 14.07365417 C47.34838769 8.52488272 47.02859909 4.70832211 44 0 C48.29 0 52.58 0 57 0 C56.34 0.99 55.68 1.98 55 3 C54.69301314 5.29876147 54.69301314 5.29876147 54.72875977 7.87939453 C54.71857315 8.87117706 54.70838654 9.86295959 54.69789124 10.88479614 C54.69575119 11.95664154 54.69361115 13.02848694 54.69140625 14.1328125 C54.66623272 16.40625241 54.64083491 18.67968985 54.61523438 20.953125 C54.58656836 24.53417238 54.56255171 28.11517647 54.54370117 31.69628906 C54.52193768 35.15453222 54.4824741 38.61225236 54.44140625 42.0703125 C54.44129044 43.13001251 54.44117462 44.18971252 54.4410553 45.28152466 C54.35324277 51.93518839 54.07635719 59.17225817 49.72535706 64.58596802 C43.06216201 70.68992853 34.35600028 70.44677348 25.8828125 70.2421875 C17.71468733 69.73270686 12.77737922 67.34039532 6.62890625 62.01171875 C2.0854663 56.40051593 2.69062613 49.45823377 2.65625 42.6171875 C2.6416272 41.52536163 2.62700439 40.43353577 2.61193848 39.30862427 C2.5498177 34.65069013 2.51001872 29.99262673 2.46826172 25.33447266 C2.43454931 21.92856945 2.38944336 18.5229476 2.34375 15.1171875 C2.3384729 14.062966 2.3331958 13.00874451 2.32775879 11.9225769 C2.31434448 10.94120758 2.30093018 9.95983826 2.28710938 8.94873047 C2.27981812 8.08746552 2.27252686 7.22620056 2.26501465 6.33883667 C2.09152252 3.6102676 2.09152252 3.6102676 0 0 Z " fill="#0D0D0D" transform="translate(215,340)"/>
<path d="M0 0 C17.16 0 34.32 0 52 0 C52 4.62 52 9.24 52 14 C51.05125 13.071875 50.1025 12.14375 49.125 11.1875 C39.76497539 3.34732097 28.53182667 4.74182478 17 5 C16.67 12.26 16.34 19.52 16 27 C28.16575172 26.53077166 28.16575172 26.53077166 40 24 C40 26.97 40 29.94 40 33 C38.63875 32.690625 37.2775 32.38125 35.875 32.0625 C29.32074631 30.87715625 22.64365012 30.47454644 16 30 C16.495 48.315 16.495 48.315 17 67 C20.279375 66.7525 23.55875 66.505 26.9375 66.25 C27.95191162 66.18200195 28.96632324 66.11400391 30.01147461 66.04394531 C39.0471266 65.26883455 44.917969 62.6656248 52 57 C52 61.29 52 65.58 52 70 C35.17 70 18.34 70 1 70 C1.66 68.35 2.32 66.7 3 65 C3.30627101 62.1556407 3.30627101 62.1556407 3.2746582 59.11157227 C3.28419022 57.95009171 3.29372223 56.78861115 3.30354309 55.5919342 C3.30263168 54.34600998 3.30172028 53.10008575 3.30078125 51.81640625 C3.30506638 50.52814438 3.3093515 49.23988251 3.31376648 47.9125824 C3.32121206 45.18997066 3.32094952 42.46748864 3.31567383 39.74487305 C3.30988064 36.26692899 3.32681387 32.78951774 3.3500185 29.31166172 C3.36834765 25.97988809 3.36456957 22.64822996 3.36328125 19.31640625 C3.372491 18.07250626 3.38170074 16.82860626 3.39118958 15.54701233 C3.38184639 13.80006325 3.38184639 13.80006325 3.37231445 12.01782227 C3.37294388 10.9980983 3.3735733 9.97837433 3.3742218 8.92774963 C3.07824433 5.33098258 3.07824433 5.33098258 0 0 Z " fill="#020202" transform="translate(389,340)"/>
<path d="M0 0 C18.81 0 37.62 0 57 0 C57 4.29 57 8.58 57 13 C56.34 13 55.68 13 55 13 C53.9790625 11.8553125 53.9790625 11.8553125 52.9375 10.6875 C47.78824572 5.97648013 41.73495198 5.09567675 35 4 C35.10750505 12.16245351 35.22013918 20.32481317 35.33933926 28.48710346 C35.39452584 32.27709879 35.447939 36.06710189 35.49731445 39.85717773 C35.54502094 43.51415398 35.59736599 47.171037 35.65294075 50.82790184 C35.67333583 52.2237332 35.69205361 53.6195901 35.70907402 55.01546669 C35.73318077 56.96911102 35.76378046 58.92267197 35.79467773 60.8762207 C35.81799416 62.5450103 35.81799416 62.5450103 35.84178162 64.24751282 C35.88493745 67.09025286 35.88493745 67.09025286 37 70 C31.06 70 25.12 70 19 70 C19.66 68.35 20.32 66.7 21 65 C21.32388831 62.03199753 21.32388831 62.03199753 21.31884766 58.83276367 C21.33871735 57.61187546 21.35858704 56.39098724 21.37905884 55.13310242 C21.39061005 53.82460831 21.40216125 52.5161142 21.4140625 51.16796875 C21.43278547 49.80746806 21.45235973 48.44697883 21.4727478 47.08650208 C21.52395602 43.51753521 21.56364187 39.94853074 21.60089111 36.37939453 C21.64100201 32.73265365 21.69206192 29.08606766 21.7421875 25.43945312 C21.83881261 18.29308232 21.92326001 11.14661425 22 4 C20.25875817 4.2707926 18.51953877 4.55460663 16.78125 4.84375 C15.81251953 5.00037109 14.84378906 5.15699219 13.84570312 5.31835938 C9.60912289 6.33316137 6.46739927 8.44851752 3 11 C2.01 11.66 1.02 12.32 0 13 C0 8.71 0 4.42 0 0 Z " fill="#0F0F0F" transform="translate(157,340)"/>
<path d="M0 0 C18.15 0 36.3 0 55 0 C55 3.63 55 7.26 55 11 C53.948125 10.236875 52.89625 9.47375 51.8125 8.6875 C48.04724486 6.29748417 44.5502559 5.26694219 40.19921875 4.33203125 C39.03608154 4.07784424 37.87294434 3.82365723 36.67456055 3.56176758 C35.35065308 3.28369263 35.35065308 3.28369263 34 3 C34.1075879 11.01479913 34.22023872 19.02950433 34.33933926 27.04413986 C34.39448462 30.76572513 34.44789102 34.48731837 34.49731445 38.20898438 C34.54508196 41.80112671 34.59742891 45.39317589 34.65294075 48.9852066 C34.67330828 50.35509163 34.69203046 51.72500214 34.70907402 53.09493256 C34.73324211 55.0148457 34.76382225 56.93467488 34.79467773 58.85449219 C34.81799416 60.49330353 34.81799416 60.49330353 34.84178162 62.16522217 C34.923527 65.22704666 34.923527 65.22704666 36 69 C30.06 69 24.12 69 18 69 C18.66 67.68 19.32 66.36 20 65 C20.32663284 62.09073811 20.32663284 62.09073811 20.31884766 58.85449219 C20.33871735 57.61350769 20.35858704 56.37252319 20.37905884 55.09393311 C20.39093424 53.74491555 20.40259715 52.39589611 20.4140625 51.046875 C20.43277907 49.66252494 20.45235285 48.27818622 20.4727478 46.89385986 C20.52402362 43.25747373 20.56367346 39.62105063 20.60089111 35.98449707 C20.64095945 32.27082203 20.69203884 28.55730017 20.7421875 24.84375 C20.83889283 17.56260518 20.92331463 10.28138611 21 3 C18.90843931 3.44645799 16.81898335 3.90278407 14.73046875 4.36328125 C12.98479614 4.74286987 12.98479614 4.74286987 11.20385742 5.13012695 C7.36571536 6.17221338 5.09252613 7.57612817 2 10 C1.34 10 0.68 10 0 10 C0 6.7 0 3.4 0 0 Z " fill="#080808" transform="translate(274,341)"/>
<path d="M0 0 C2.64 0 5.28 0 8 0 C9 1 9 1 9.12025452 3.36012268 C9.1169236 4.92898476 9.1169236 4.92898476 9.11352539 6.52954102 C9.11344986 7.71068985 9.11337433 8.89183868 9.11329651 10.10877991 C9.10813522 11.3941716 9.10297394 12.67956329 9.09765625 14.00390625 C9.0962413 15.31205795 9.09482635 16.62020966 9.09336853 17.96800232 C9.0895441 21.45162859 9.07971446 24.93521339 9.06866455 28.41882324 C9.05844882 31.97126708 9.05387056 35.52371759 9.04882812 39.07617188 C9.03809212 46.05079832 9.0210166 53.02539717 9 60 C10.75129657 58.89789095 12.50098464 57.79322568 14.25 56.6875 C15.22453125 56.07261719 16.1990625 55.45773437 17.203125 54.82421875 C18.12609375 54.22222656 19.0490625 53.62023437 20 53 C20.76602539 52.50266357 21.53205078 52.00532715 22.32128906 51.49291992 C24.38863309 49.96751076 24.38863309 49.96751076 24.609375 46.42578125 C24.6791013 45.05565951 24.72134285 43.68409546 24.75 42.3125 C24.8325 39.899375 24.915 37.48625 25 35 C32.59 35 40.18 35 48 35 C42.72849224 48.17876939 30.4888795 58.21022687 19.625 66.8828125 C16.47947709 69.41982651 13.46407549 72.08233206 10.4609375 74.78515625 C9 76 9 76 8 76 C8 74.02 8 72.04 8 70 C9.485 69.505 9.485 69.505 11 69 C11 67.35 11 65.7 11 64 C10.01 63.67 9.02 63.34 8 63 C6.9572237 59.87167111 6.87923155 57.70810913 6.88647461 54.42700195 C6.88655014 53.28604568 6.88662567 52.14508942 6.88670349 50.96955872 C6.89186478 49.73823715 6.89702606 48.50691559 6.90234375 47.23828125 C6.9037587 45.97735153 6.90517365 44.71642181 6.90663147 43.4172821 C6.91128425 40.06848291 6.92026658 36.71975189 6.93133545 33.37097168 C6.94157313 29.95239857 6.94613414 26.53381841 6.95117188 23.11523438 C6.96220901 16.41013739 6.97895314 9.70507263 7 3 C4.98791672 3.79231309 4.98791672 3.79231309 3 5 C1.52768073 10.89961433 1.78339922 17.12919961 1.68359375 23.18359375 C1.66281265 24.23909927 1.64203156 25.2946048 1.62062073 26.38209534 C1.55555152 29.7338345 1.49643948 33.085648 1.4375 36.4375 C1.39427419 38.71810646 1.35065864 40.99870557 1.30664062 43.27929688 C1.19991416 48.85278738 1.09807078 54.42635083 1 60 C0.67 60 0.34 60 0 60 C0 40.2 0 20.4 0 0 Z " fill="#F1D1C9" transform="translate(296,212)"/>
<path d="M0 0 C4.86134811 3.45695866 9.73136978 8.29729512 11.8125 14 C11.8125 16.31 11.8125 18.62 11.8125 21 C2.9025 21 -6.0075 21 -15.1875 21 C-15.1875 14.07 -15.1875 7.14 -15.1875 0 C-10.64304833 -2.27222584 -4.69847138 -1.47403024 0 0 Z " fill="#FBFBFB" transform="translate(336.1875,209)"/>
<path d="M0 0 C0.9796875 -0.00257813 1.959375 -0.00515625 2.96875 -0.0078125 C5.5 0.125 5.5 0.125 7.5 1.125 C7.5 7.725 7.5 14.325 7.5 21.125 C-1.08 21.125 -9.66 21.125 -18.5 21.125 C-18.5 13.77248872 -17.85211054 11.5170954 -13.5 6.125 C-9.15985478 1.82730119 -6.11455336 -0.01609093 0 0 Z " fill="#FCFCFB" transform="translate(271.5,207.875)"/>
<path d="M0 0 C7.26 0 14.52 0 22 0 C21.9175 1.98 21.835 3.96 21.75 6 C22.04747991 10.61345964 22.36930354 12.39089657 25.73828125 15.64453125 C28.75986676 17.61513049 31.77353622 19.38920134 35 21 C34.67 21.66 34.34 22.32 34 23 C32.35 22.67 30.7 22.34 29 22 C28.67 24.64 28.34 27.28 28 30 C28.66 30 29.32 30 30 30 C29.67 30.99 29.34 31.98 29 33 C5.99386503 11.98773006 5.99386503 11.98773006 0 0 Z " fill="#FAF7F5" transform="translate(257,248)"/>
<path d="M0 0 C2.74067814 4.11101722 4.24974939 8.52107992 6 13.125 C6.35578125 14.03765625 6.7115625 14.9503125 7.078125 15.890625 C7.42359375 16.79554688 7.7690625 17.70046875 8.125 18.6328125 C8.43695313 19.44637207 8.74890625 20.25993164 9.0703125 21.09814453 C10.31686796 24.98904742 11.11368507 29.01158281 12 33 C4.08 33 -3.84 33 -12 33 C-11.18478285 28.92391423 -10.18393359 25.50793481 -8.75 21.640625 C-8.08484375 19.84431641 -8.08484375 19.84431641 -7.40625 18.01171875 C-7.17550781 17.39474121 -6.94476563 16.77776367 -6.70703125 16.14208984 C-5.99763405 14.24366847 -5.2952986 12.34274012 -4.59375 10.44140625 C-1.13145439 1.13145439 -1.13145439 1.13145439 0 0 Z " fill="#F7F7F7" transform="translate(132,348)"/>
<path d="M0 0 C4.29 0 8.58 0 13 0 C12.01 1.485 12.01 1.485 11 3 C10.69301314 5.29876147 10.69301314 5.29876147 10.72875977 7.87939453 C10.71857315 8.87117706 10.70838654 9.86295959 10.69789124 10.88479614 C10.69575119 11.95664154 10.69361115 13.02848694 10.69140625 14.1328125 C10.66623272 16.40625241 10.64083491 18.67968985 10.61523438 20.953125 C10.58656836 24.53417238 10.56255171 28.11517647 10.54370117 31.69628906 C10.52193768 35.15453222 10.4824741 38.61225236 10.44140625 42.0703125 C10.44129044 43.13001251 10.44117462 44.18971252 10.4410553 45.28152466 C10.34279172 52.72707718 9.58260665 59.50098453 5.0625 65.625 C3 67 3 67 0.87109375 66.5859375 C0.25363281 66.39257812 -0.36382812 66.19921875 -1 66 C-0.57550819 65.01046074 -0.57550819 65.01046074 -0.1424408 64.00093079 C2.68063431 56.94713818 3.58132515 50.97620962 3.49609375 43.41796875 C3.49754898 42.36015701 3.49900421 41.30234528 3.50050354 40.21247864 C3.49885602 37.99652323 3.487425 35.78055499 3.46655273 33.56469727 C3.43742435 30.17870611 3.44600344 26.79426768 3.45898438 23.40820312 C3.45275083 21.24478409 3.44436291 19.08136996 3.43359375 16.91796875 C3.43652939 15.91162888 3.43946503 14.905289 3.44248962 13.86845398 C3.37017219 8.48030307 2.97788843 4.68574422 0 0 Z " fill="#161616" transform="translate(259,340)"/>
<path d="M0 0 C7.26 0 14.52 0 22 0 C19.11680754 5.04558681 16.63461493 8.89548836 12.75 13 C12.26837402 13.51473877 11.78674805 14.02947754 11.29052734 14.55981445 C0.37783444 26.09044629 0.37783444 26.09044629 -6 27 C-6 26.34 -6 25.68 -6 25 C-6.99 25 -7.98 25 -9 25 C-9 23.68 -9 22.36 -9 21 C-6.36 20.34 -3.72 19.68 -1 19 C-0.67 12.73 -0.34 6.46 0 0 Z " fill="#F9FBF9" transform="translate(322,248)"/>
<path d="M0 0 C2.5681025 2.38133141 4.41015349 4.98350099 6.375 7.875 C15.05333712 19.87897726 26.20805759 29.17814203 38 38 C37.34 38.66 36.68 39.32 36 40 C34.63875 38.7934375 34.63875 38.7934375 33.25 37.5625 C30.82127198 35.51272245 29.10934452 34.69096545 26 34 C25.67 33.01 25.34 32.02 25 31 C22.1315587 28.89767656 22.1315587 28.89767656 19 28 C18.525625 27.154375 18.05125 26.30875 17.5625 25.4375 C17.046875 24.633125 16.53125 23.82875 16 23 C11.63615522 23 11.18577181 23.45138255 8 26 C7.34 26 6.68 26 6 26 C6.33 27.65 6.66 29.3 7 31 C7.99 30.01 8.98 29.02 10 28 C10.98120464 31.05263664 10.98120464 32.94736336 10 36 C11.65 36.66 13.3 37.32 15 38 C14.34 38.66 13.68 39.32 13 40 C12.21496094 39.27554688 11.42992187 38.55109375 10.62109375 37.8046875 C9.56005903 36.82794769 8.49884959 35.85139766 7.4375 34.875 C6.889729 34.3701709 6.34195801 33.8653418 5.77758789 33.34521484 C2.88869985 30.69319087 -0.0275697 28.11050326 -3.0625 25.625 C-5.76725955 23.20798083 -7.3895803 21.22083939 -9 18 C-6.69 18.33 -4.38 18.66 -2 19 C-1.67 18.01 -1.34 17.02 -1 16 C1.64 15.67 4.28 15.34 7 15 C6.5875 14.525625 6.175 14.05125 5.75 13.5625 C3.15587613 9.76396148 0 4.7057018 0 0 Z " fill="#AD2D17" transform="translate(256,248)"/>
<path d="M0 0 C17.16 0 34.32 0 52 0 C52 4.62 52 9.24 52 14 C51.05125 13.071875 50.1025 12.14375 49.125 11.1875 C40.0890224 3.60085742 28.20739565 4.35404627 17 4 C17 3.67 17 3.34 17 3 C20.96 3 24.92 3 29 3 C29 2.34 29 1.68 29 1 C19.76 1.33 10.52 1.66 1 2 C0.67 1.34 0.34 0.68 0 0 Z " fill="#313131" transform="translate(389,340)"/>
<path d="M0 0 C0.66 0 1.32 0 2 0 C2 16.5 2 33 2 50 C3.98 49.34 5.96 48.68 8 48 C8.33 47.34 8.66 46.68 9 46 C10.65 46 12.3 46 14 46 C14 41.38 14 36.76 14 32 C14.66 31.67 15.32 31.34 16 31 C16.8418668 36.01111189 17.6480351 41.09894039 16 46 C12.39594295 50.54441692 7.09323455 53.40452676 2 56 C1.34 56 0.68 56 0 56 C0 37.52 0 19.04 0 0 Z " fill="#A03320" transform="translate(305,216)"/>
<path d="M0 0 C7.26 0 14.52 0 22 0 C21.9175 1.98 21.835 3.96 21.75 6 C22.04747991 10.61345964 22.36930354 12.39089657 25.73828125 15.64453125 C28.75986676 17.61513049 31.77353622 19.38920134 35 21 C34.67 21.66 34.34 22.32 34 23 C32.35 22.67 30.7 22.34 29 22 C28.67 24.64 28.34 27.28 28 30 C28.66 30 29.32 30 30 30 C29.67 30.99 29.34 31.98 29 33 C26.69 31.02 24.38 29.04 22 27 C22.46921997 24.58686871 22.9501636 22.19380821 23.5625 19.8125 C24.07821351 17.98673164 24.07821351 17.98673164 24 16 C22.68 15.67 21.36 15.34 20 15 C19.67 13.02 19.34 11.04 19 9 C19.66 9 20.32 9 21 9 C21 6.36 21 3.72 21 1 C15.39 1 9.78 1 4 1 C4 2.65 4 4.3 4 6 C1.7522025 3.94766315 0.9977758 2.99332739 0 0 Z " fill="#FDF3ED" transform="translate(257,248)"/>
<path d="M0 0 C1.32 0.33 2.64 0.66 4 1 C3.85936865 3.29199177 3.71234057 5.58359186 3.5625 7.875 C3.48128906 9.15117187 3.40007812 10.42734375 3.31640625 11.7421875 C3 15 3 15 2 17 C2.66 17 3.32 17 4 17 C4 17.66 4 18.32 4 19 C5.27230469 18.75443359 5.27230469 18.75443359 6.5703125 18.50390625 C10.0645531 17.99051555 13.34627574 17.90149261 16.875 17.9375 C18.02742188 17.94652344 19.17984375 17.95554688 20.3671875 17.96484375 C21.23601562 17.97644531 22.10484375 17.98804688 23 18 C24.07174763 14.34811918 23.76411467 11.73567172 23 8 C26.88611192 13.06884164 27 13.84332215 27 21 C18.09 21 9.18 21 0 21 C0 14.07 0 7.14 0 0 Z " fill="#F6DDD0" transform="translate(321,209)"/>
<path d="M0 0 C2.64 0 5.28 0 8 0 C8 19.8 8 39.6 8 60 C7.67 60 7.34 60 7 60 C7 41.19 7 22.38 7 3 C5.02 3.99 5.02 3.99 3 5 C1.52768073 10.89961433 1.78339922 17.12919961 1.68359375 23.18359375 C1.66281265 24.23909927 1.64203156 25.2946048 1.62062073 26.38209534 C1.55555152 29.7338345 1.49643948 33.085648 1.4375 36.4375 C1.39427419 38.71810646 1.35065864 40.99870557 1.30664062 43.27929688 C1.19991416 48.85278738 1.09807078 54.42635083 1 60 C0.67 60 0.34 60 0 60 C0 40.2 0 20.4 0 0 Z " fill="#F7DED3" transform="translate(296,212)"/>
<path d="M0 0 C0.62261719 0.14308594 1.24523437 0.28617188 1.88671875 0.43359375 C6.1734045 1.21348012 10.47917048 1.62625877 14.8125 2.0625 C16.13797852 2.19881836 16.13797852 2.19881836 17.49023438 2.33789062 C19.65994746 2.56072602 21.82986051 2.78136298 24 3 C25 6 25 6 24.1875 8.125 C23 10 23 10 21 11 C18.9904432 13.93704456 18 15.39222485 18 19 C17.01 19.33 16.02 19.66 15 20 C14.54625 20.639375 14.0925 21.27875 13.625 21.9375 C12 24 12 24 9.4375 25 C6.84562337 25.78440697 6.84562337 25.78440697 5.6875 28.125 C5.3471875 29.053125 5.3471875 29.053125 5 30 C4.34 30 3.68 30 3 30 C2.67 30.99 2.34 31.98 2 33 C0.68 32.34 -0.64 31.68 -2 31 C-1.2265625 30.31035156 -0.453125 29.62070312 0.34375 28.91015625 C8.86045576 21.25388988 16.2598547 14.04525427 22 4 C14.74 4 7.48 4 0 4 C0.99 3.67 1.98 3.34 3 3 C3 2.34 3 1.68 3 1 C2.01 0.67 1.02 0.34 0 0 Z " fill="#A63725" transform="translate(322,243)"/>
<path d="M0 0 C0.66 0.33 1.32 0.66 2 1 C1.60167969 1.43570313 1.20335937 1.87140625 0.79296875 2.3203125 C-1.81280421 5.24942956 -3.88494096 7.76545657 -5.625 11.3125 C-7 14 -7 14 -9 14.875 C-11.7188917 16.40437658 -12.42809062 18.35669462 -13.40234375 21.2421875 C-14.92264655 28.25744095 -16.0317412 37.03403019 -14 44 C-13.87794671 46.67540816 -13.95532687 49.31961238 -14 52 C-13.34 52 -12.68 52 -12 52 C-12 53.98 -12 55.96 -12 58 C-16.72688211 53.27311789 -18.21642839 42.4567074 -18.5 36 C-17.92062383 24.43178912 -14.23955655 13.04809001 -5.8359375 4.90234375 C-3.9303794 3.20888841 -2.000645 1.57918933 0 0 Z " fill="#A23F33" transform="translate(252,196)"/>
<path d="M0 0 C4.92066087 4.92066087 6.23434019 14.65295704 6.5 21.4375 C6.17698507 29.47698274 4.40213172 39.82392391 -1 46 C-1 43.36 -1 40.72 -1 38 C-0.01 38 0.98 38 2 38 C2.1881574 28.10082992 2.31564754 18.53069448 0.4375 8.76171875 C-0.03161472 5.80043209 -0.07074207 2.99327399 0 0 Z " fill="#A9473D" transform="translate(360,210)"/>
<path d="M0 0 C7.94855388 3.47444456 13.22529103 8.10982973 17.875 15.375 C17.545 16.035 17.215 16.695 16.875 17.375 C15.555 16.715 14.235 16.055 12.875 15.375 C12.875 14.385 12.875 13.395 12.875 12.375 C11.885 12.045 10.895 11.715 9.875 11.375 C9.875 10.385 9.875 9.395 9.875 8.375 C8.885 8.375 7.895 8.375 6.875 8.375 C6.153125 7.59125 5.43125 6.8075 4.6875 6 C-1.27705105 0.43308569 -9.86788696 0.99431852 -17.625 0.75 C-19.14480469 0.69199219 -19.14480469 0.69199219 -20.6953125 0.6328125 C-23.17170284 0.53936381 -25.64810151 0.45360127 -28.125 0.375 C-20.53332437 -3.8631483 -8.07097173 -2.72437864 0 0 Z " fill="#A33529" transform="translate(342.125,192.625)"/>
<path d="M0 0 C0 2.97 0 5.94 0 9 C-1.4025 8.690625 -2.805 8.38125 -4.25 8.0625 C-9.34172962 7.01505848 -14.34298752 6.64866931 -19.53125 6.44140625 C-20.3459375 6.29574219 -21.160625 6.15007812 -22 6 C-22.66 5.01 -23.32 4.02 -24 3 C-22.91460937 2.95101563 -21.82921875 2.90203125 -20.7109375 2.8515625 C-19.26560216 2.77648014 -17.82029081 2.70093472 -16.375 2.625 C-15.66214844 2.5940625 -14.94929688 2.563125 -14.21484375 2.53125 C-9.33406064 2.26258304 -4.68975657 0 0 0 Z " fill="#181818" transform="translate(429,364)"/>
<path d="M0 0 C0.69351562 -0.00386719 1.38703125 -0.00773438 2.1015625 -0.01171875 C7.24833354 -0.00166646 7.24833354 -0.00166646 8.375 1.125 C8.47365116 2.50499937 8.50579023 3.88991799 8.5078125 5.2734375 C8.50974609 6.53414062 8.50974609 6.53414062 8.51171875 7.8203125 C8.50785156 8.70460937 8.50398438 9.58890625 8.5 10.5 C8.50580078 11.81484375 8.50580078 11.81484375 8.51171875 13.15625 C8.51042969 13.99929687 8.50914062 14.84234375 8.5078125 15.7109375 C8.50668457 16.4848584 8.50555664 17.2587793 8.50439453 18.05615234 C8.375 20.125 8.375 20.125 7.375 23.125 C-1.865 23.125 -11.105 23.125 -20.625 23.125 C-20.295 21.805 -19.965 20.485 -19.625 19.125 C-19.625 20.115 -19.625 21.105 -19.625 22.125 C-11.045 22.125 -2.465 22.125 6.375 22.125 C6.375 15.525 6.375 8.925 6.375 2.125 C4.3125 2.104375 2.25 2.08375 0.125 2.0625 C-1.03515625 2.05089844 -2.1953125 2.03929687 -3.390625 2.02734375 C-6.03477128 2.10717908 -8.12326091 2.33856222 -10.625 3.125 C-10.625 2.465 -10.625 1.805 -10.625 1.125 C-7.03023628 -0.07325457 -3.73950601 -0.02108744 0 0 Z " fill="#B76355" transform="translate(272.625,206.875)"/>
<path d="M0 0 C1.18505127 -0.00193359 1.18505127 -0.00193359 2.39404297 -0.00390625 C8.92279616 0.11341666 14.42654536 1.47091665 20.3125 4.375 C19.9825 5.035 19.6525 5.695 19.3125 6.375 C17.3325 6.375 15.3525 6.375 13.3125 6.375 C12.9825 5.715 12.6525 5.055 12.3125 4.375 C10.9925 4.705 9.6725 5.035 8.3125 5.375 C8.3125 4.715 8.3125 4.055 8.3125 3.375 C2.0425 3.045 -4.2275 2.715 -10.6875 2.375 C-11.0175 3.365 -11.3475 4.355 -11.6875 5.375 C-13.9975 5.375 -16.3075 5.375 -18.6875 5.375 C-13.04260648 0.59855164 -7.11123401 -0.01199449 0 0 Z " fill="#A53520" transform="translate(272.6875,190.625)"/>
<path d="M0 0 C0.9075 0.94875 1.815 1.8975 2.75 2.875 C7.51006741 7.03637852 12.88891597 7.417992 19 8 C14.29555903 11.13629398 9.5080394 10.56081856 4 10 C-0.51174101 8.72976216 -4.65151656 7.34848344 -8 4 C-7.01 3.67 -6.02 3.34 -5 3 C-4.01 3.66 -3.02 4.32 -2 5 C-2 4.34 -2 3.68 -2 3 C-1.34 3 -0.68 3 0 3 C0 2.01 0 1.02 0 0 Z " fill="#0B0B0B" transform="translate(348,400)"/>
<path d="M0 0 C4.19921466 -0.02476851 8.39839029 -0.04289246 12.59765625 -0.05493164 C14.02539816 -0.05995206 15.45313496 -0.06676972 16.88085938 -0.07543945 C18.93621079 -0.08760553 20.99149407 -0.09325128 23.046875 -0.09765625 C24.90070801 -0.10551147 24.90070801 -0.10551147 26.79199219 -0.11352539 C29.4145671 -0.02071737 31.51644594 0.21643327 34 1 C34 2.32 34 3.64 34 5 C34.93283296 7.20067421 34.93283296 7.20067421 36 9 C35.50371094 8.72285156 35.00742187 8.44570313 34.49609375 8.16015625 C29.90681832 5.71312324 26.18440279 4.43203357 21 4 C21 3.34 21 2.68 21 2 C14.07 2 7.14 2 0 2 C0 1.34 0 0.68 0 0 Z " fill="#393939" transform="translate(442,340)"/>
<path d="M0 0 C0.33 0 0.66 0 1 0 C0.62270085 6.03678645 -1.26089812 10.22420009 -5 15 C-5.99 15.495 -5.99 15.495 -7 16 C-8.02611949 17.65071396 -9.02308143 19.31970006 -10 21 C-10.98244845 22.34631825 -11.97676564 23.68441297 -13 25 C-14.65 24.67 -16.3 24.34 -18 24 C-17.67 23.34 -17.34 22.68 -17 22 C-16.34 22 -15.68 22 -15 22 C-14.67 21.01 -14.34 20.02 -14 19 C-12.85348439 17.85348439 -11.70360056 16.71009675 -10.53515625 15.5859375 C-6.05078526 10.95322854 -2.18045403 6.10097482 0 0 Z " fill="#F9E6DC" transform="translate(360,254)"/>
<path d="M0 0 C7.59 0 15.18 0 23 0 C23 0.33 23 0.66 23 1 C15.74 1 8.48 1 1 1 C1 7.6 1 14.2 1 21 C-5 22 -5 22 -8 22 C-8.33 22.66 -8.66 23.32 -9 24 C-9.66 23.34 -10.32 22.68 -11 22 C-10.28972656 21.66871094 -9.57945312 21.33742188 -8.84765625 20.99609375 C-5.68976122 19.22891266 -3.42737714 17.70443722 -1 15 C0.24323334 9.66559791 0.09958628 5.62662496 0 0 Z " fill="#EBBFB7" transform="translate(321,247)"/>
<path d="M0 0 C4.23602915 3.57709128 8.36106 7.24149961 12.4375 11 C16.77074631 14.9621672 21.20181409 18.61789761 26 22 C25.34 22.66 24.68 23.32 24 24 C23.0925 23.195625 22.185 22.39125 21.25 21.5625 C18.82127198 19.51272245 17.10934452 18.69096545 14 18 C13.67 17.01 13.34 16.02 13 15 C10.1315587 12.89767656 10.1315587 12.89767656 7 12 C5.98133771 10.34467377 4.98189187 8.67739862 4 7 C3.01 6.34 2.02 5.68 1 5 C0.3125 2.375 0.3125 2.375 0 0 Z " fill="#9F3B2B" transform="translate(268,264)"/>
<path d="M0 0 C7.59 0 15.18 0 23 0 C24.53549231 3.07098462 24.4426817 6.29580377 24.71875 9.6875 C24.87136047 12.02268455 24.87136047 12.02268455 26 14 C26.66 14 27.32 14 28 14 C28 14.66 28 15.32 28 16 C29.32 16.33 30.64 16.66 32 17 C32.495 18.98 32.495 18.98 33 21 C28.83355665 19.13998065 25.2603071 17.22390814 22 14 C20.98038368 9.31085545 21.44966169 5.85298332 22 1 C14.74 1 7.48 1 0 1 C0 0.67 0 0.34 0 0 Z " fill="#B45E50" transform="translate(257,247)"/>
<path d="M0 0 C7.92 0 15.84 0 24 0 C24.33 0.99 24.66 1.98 25 3 C16.75 3 8.5 3 0 3 C0 2.01 0 1.02 0 0 Z " fill="#010101" transform="translate(120,382)"/>
<path d="M0 0 C0.33 0 0.66 0 1 0 C1 19.14 1 38.28 1 58 C-0.98 57.01 -2.96 56.02 -5 55 C-3.02 54.505 -3.02 54.505 -1 54 C-0.67 36.18 -0.34 18.36 0 0 Z " fill="#9D352C" transform="translate(295,214)"/>
<path d="M0 0 C7.26 0 14.52 0 22 0 C21.01 1.98 20.02 3.96 19 6 C17 3 17 3 16 1 C11.38 1 6.76 1 2 1 C2.33 4.63 2.66 8.26 3 12 C2.34 12 1.68 12 1 12 C0.67 12.66 0.34 13.32 0 14 C0 9.38 0 4.76 0 0 Z " fill="#FEEFE7" transform="translate(322,248)"/>
<path d="M0 0 C1.98 0 3.96 0 6 0 C6 0.66 6 1.32 6 2 C5.34 2 4.68 2 4 2 C4 2.66 4 3.32 4 4 C4.99 4 5.98 4 7 4 C7 3.34 7 2.68 7 2 C7.99 2 8.98 2 10 2 C10 2.66 10 3.32 10 4 C9.01 4.495 9.01 4.495 8 5 C7.67 5.99 7.34 6.98 7 8 C5.02 8 3.04 8 1 8 C-0.42944945 5.64561267 -1.08661261 4.51967567 -0.625 1.75 C-0.41875 1.1725 -0.2125 0.595 0 0 Z " fill="#B62912" transform="translate(297,302)"/>
<path d="M0 0 C0.33 0.99 0.66 1.98 1 3 C1.99 3.66 2.98 4.32 4 5 C-2.6 4.67 -9.2 4.34 -16 4 C-16 3.01 -16 2.02 -16 1 C-13.70839646 0.83246763 -11.41671509 0.66599948 -9.125 0.5 C-7.84882813 0.4071875 -6.57265625 0.314375 -5.2578125 0.21875 C-3.50763316 0.10123196 -1.75412035 0 0 0 Z " fill="#F3DFD3" transform="translate(336,187)"/>
<path d="M0 0 C1.32 0.33 2.64 0.66 4 1 C3.34 1.66 2.68 2.32 2 3 C2.33 3.66 2.66 4.32 3 5 C2.071875 5.309375 2.071875 5.309375 1.125 5.625 C-1.84653645 7.54775888 -2.13024659 9.66594527 -3 13 C-4.65 12.67 -6.3 12.34 -8 12 C-8 11.01 -8 10.02 -8 9 C-6.34211215 7.65576661 -4.67423683 6.32381517 -3 5 C-1.21037181 2.38142305 -1.21037181 2.38142305 0 0 Z " fill="#B32915" transform="translate(330,267)"/>
<path d="M0 0 C3.62234999 3.62234999 4.11906729 7.79015906 4.1953125 12.7421875 C4.1821506 14.4532349 4.15849399 16.16422982 4.125 17.875 C4.11597656 18.75414062 4.10695313 19.63328125 4.09765625 20.5390625 C4.07424577 22.6928271 4.0383801 24.84645014 4 27 C3.34 27.33 2.68 27.66 2 28 C2.04125 26.783125 2.0825 25.56625 2.125 24.3125 C2.141375 19.1379986 1.33183324 14.19980153 0.4375 9.11328125 C0.00426052 6.03031813 -0.07456792 3.10855036 0 0 Z " fill="#AB2E1E" transform="translate(360,210)"/>
<path d="M0 0 C2 3 2 3 1.5625 5.625 C1.376875 6.40875 1.19125 7.1925 1 8 C2.61780157 9.61780157 4.45635518 9.22272147 6.69140625 9.31640625 C7.63564453 9.35830078 8.57988281 9.40019531 9.55273438 9.44335938 C11.04256836 9.50233398 11.04256836 9.50233398 12.5625 9.5625 C14.05813477 9.62727539 14.05813477 9.62727539 15.58398438 9.69335938 C18.0558415 9.79980298 20.5278031 9.90181928 23 10 C23.33 9.34 23.66 8.68 24 8 C24 8.99 24 9.98 24 11 C15.42 11 6.84 11 -2 11 C-2 3.125 -2 3.125 0 0 Z " fill="#FCEDE0" transform="translate(255,218)"/>
<path d="M0 0 C6.80634895 3.60336121 11.27553702 7.87569614 16 14 C15.67 14.66 15.34 15.32 15 16 C13.68 15.34 12.36 14.68 11 14 C11 13.01 11 12.02 11 11 C10.01 10.67 9.02 10.34 8 10 C8 9.01 8 8.02 8 7 C7.01 7 6.02 7 5 7 C2.3125 4.625 2.3125 4.625 0 2 C0 1.34 0 0.68 0 0 Z " fill="#9F4333" transform="translate(344,194)"/>
<path d="M0 0 C0.66 0 1.32 0 2 0 C2 0.66 2 1.32 2 2 C2.515625 2.12375 3.03125 2.2475 3.5625 2.375 C6.72702351 3.18641628 9.86124985 4.0945913 13 5 C13.33 3.68 13.66 2.36 14 1 C15.32 1.33 16.64 1.66 18 2 C13.30726257 6.84916201 13.30726257 6.84916201 8.75 7.375 C3.85162217 6.88516222 2.45922935 5.3748579 -1 2 C-0.67 1.34 -0.34 0.68 0 0 Z " fill="#9F4130" transform="translate(291,305)"/>
<path d="M0 0 C7.92 0 15.84 0 24 0 C23.67 0.66 23.34 1.32 23 2 C20.42682297 2.3448897 17.96049228 2.56076018 15.375 2.6875 C14.32505859 2.75807617 14.32505859 2.75807617 13.25390625 2.83007812 C8.67759652 3.08903443 4.51508497 2.78806601 0 2 C0 1.34 0 0.68 0 0 Z " fill="#9F3126" transform="translate(324,230)"/>
<path d="M0 0 C1.99710729 0.26191571 3.99403078 0.52574674 5.98828125 0.80859375 C8.20582199 1.01958306 9.91278603 0.78270524 12 0 C12 0.99 12 1.98 12 3 C9.5 5.1875 9.5 5.1875 7 7 C3.63408134 5.55746343 1.48952921 3.66735273 -1 1 C-0.67 0.67 -0.34 0.34 0 0 Z M6 0 C8 1 8 1 8 1 Z " fill="#FCE4E1" transform="translate(294,194)"/>
<path d="M0 0 C0.99 0.66 1.98 1.32 3 2 C-1.34529148 8.5264574 -1.34529148 8.5264574 -5.40234375 9.6875 C-7.6188807 9.91160484 -9.77321644 10.03463886 -12 10 C-12 9.67 -12 9.34 -12 9 C-13.65 8.67 -15.3 8.34 -17 8 C-17 7.67 -17 7.34 -17 7 C-16.26394531 6.97421875 -15.52789062 6.9484375 -14.76953125 6.921875 C-7.05581837 6.5307505 -7.05581837 6.5307505 -1 2 C-0.67 1.34 -0.34 0.68 0 0 Z " fill="#242424" transform="translate(376,400)"/>
<path d="M0 0 C0.66 0 1.32 0 2 0 C1.67 0.99 1.34 1.98 1 3 C0.34 3 -0.32 3 -1 3 C-1.226875 3.7425 -1.45375 4.485 -1.6875 5.25 C-3.82225915 9.7228287 -6.74478937 11.52633561 -11.3125 13.25 C-12.199375 13.4975 -13.08625 13.745 -14 14 C-10.12814498 9.03918575 -5.79125711 5.06361292 -1 1 C-0.67 0.67 -0.34 0.34 0 0 Z " fill="#F7DED3" transform="translate(334,284)"/>
<path d="M0 0 C0.66 1.32 1.32 2.64 2 4 C-0.49505962 6.49505962 -1.67328888 6.35948376 -5.125 6.625 C-6.03507813 6.69976562 -6.94515625 6.77453125 -7.8828125 6.8515625 C-8.93082031 6.92503906 -8.93082031 6.92503906 -10 7 C-10 6.34 -10 5.68 -10 5 C-11.98 5 -13.96 5 -16 5 C-16 4.67 -16 4.34 -16 4 C-14.89591797 3.94392578 -14.89591797 3.94392578 -13.76953125 3.88671875 C-6.39587342 3.47015527 -6.39587342 3.47015527 0 0 Z " fill="#191919" transform="translate(258,403)"/>
<path d="M0 0 C4.21912747 0.4794463 6.79663178 1.16625119 10 4 C9.401875 4.103125 8.80375 4.20625 8.1875 4.3125 C5.71756736 5.08876455 4.67748765 6.07088921 3 8 C1.35 6.35 -0.3 4.7 -2 3 C-1.34 2.01 -0.68 1.02 0 0 Z " fill="#0D0D0D" transform="translate(476,342)"/>
<path d="M0 0 C9.405 1.485 9.405 1.485 19 3 C19 3.33 19 3.66 19 4 C12.07 4 5.14 4 -2 4 C-2.33 3.34 -2.66 2.68 -3 2 C-2.01 2 -1.02 2 0 2 C0 1.34 0 0.68 0 0 Z " fill="#A73025" transform="translate(259,243)"/>
<path d="M0 0 C1.32 1.65 2.64 3.3 4 5 C3.34 6.32 2.68 7.64 2 9 C-5.57142857 7.14285714 -5.57142857 7.14285714 -8 4 C-7.01 3.67 -6.02 3.34 -5 3 C-4.01 3.66 -3.02 4.32 -2 5 C-2 4.34 -2 3.68 -2 3 C-1.34 3 -0.68 3 0 3 C0 2.01 0 1.02 0 0 Z " fill="#141414" transform="translate(348,400)"/>
<path d="M0 0 C1.32 0.66 2.64 1.32 4 2 C3.13375 2.61875 3.13375 2.61875 2.25 3.25 C-0.02934272 5.02282212 -1.99370983 6.92683349 -4 9 C-4.66 9.66 -5.32 10.32 -6 11 C-6.5534764 8.92446352 -7 7.15634036 -7 5 C-5.46875 3.7109375 -5.46875 3.7109375 -3.5 2.375 C-2.8503125 1.92898438 -2.200625 1.48296875 -1.53125 1.0234375 C-1.0259375 0.68570312 -0.520625 0.34796875 0 0 Z " fill="#B62815" transform="translate(269,269)"/>
<path d="M0 0 C1.32 0.33 2.64 0.66 4 1 C3.60167969 1.4846875 3.20335937 1.969375 2.79296875 2.46875 C-0.90861052 7.15201331 -3.17349976 11.3175548 -5 17 C-5.33 17 -5.66 17 -6 17 C-6.67753062 10.49570604 -4.67685024 7.24403231 -1 2 C-0.67 1.34 -0.34 0.68 0 0 Z " fill="#FBE8DF" transform="translate(242,201)"/>
<path d="M0 0 C0.83144531 0.00902344 1.66289062 0.01804688 2.51953125 0.02734375 C4.55481337 0.0507378 6.58994564 0.08660275 8.625 0.125 C8.625 0.455 8.625 0.785 8.625 1.125 C2.025 1.455 -4.575 1.785 -11.375 2.125 C-11.705 3.115 -12.035 4.105 -12.375 5.125 C-14.685 5.125 -16.995 5.125 -19.375 5.125 C-13.43499847 0.09884486 -7.43093102 -0.15407034 0 0 Z " fill="#9B3E34" transform="translate(273.375,190.875)"/>
<path d="M0 0 C-1 2 -1 2 -3.25 3.125 C-6.01613295 4.00513321 -8.12048351 4.1645438 -11 4 C-11 4.99 -11 5.98 -11 7 C-12.32 6.67 -13.64 6.34 -15 6 C-13.70982586 5.01886757 -12.41780894 4.04015801 -11.125 3.0625 C-10.04605469 2.24458984 -10.04605469 2.24458984 -8.9453125 1.41015625 C-5.49588386 -1.09033319 -4.10247666 -0.97163921 0 0 Z " fill="#A23B2A" transform="translate(316,194)"/>
<path d="M0 0 C4.52615993 3.67832017 8.39424999 7.41086363 12 12 C8.32085287 12 7.60173135 11.17197787 4.875 8.8125 C4.17117187 8.22082031 3.46734375 7.62914062 2.7421875 7.01953125 C0.71926639 4.67457562 0.34645281 3.03933598 0 0 Z " fill="#F5D7CF" transform="translate(248,268)"/>
<path d="M0 0 C0.99 0.33 1.98 0.66 3 1 C-0.96 4.96 -4.92 8.92 -9 13 C-9.33 11.68 -9.66 10.36 -10 9 C-9.52949219 8.60167969 -9.05898438 8.20335937 -8.57421875 7.79296875 C-7.95160156 7.26316406 -7.32898438 6.73335938 -6.6875 6.1875 C-6.07261719 5.66542969 -5.45773437 5.14335937 -4.82421875 4.60546875 C-3.14575321 3.12827531 -1.56117966 1.59960869 0 0 Z " fill="#FAE0D5" transform="translate(333,259)"/>
<path d="M0 0 C0 4.23070219 -1.26084833 5.79318828 -4 9 C-6.92037423 10.35714465 -9.87559654 11.23892736 -13 12 C-8.87675353 7.74790208 -4.48717034 3.86364295 0 0 Z " fill="#A14035" transform="translate(319,275)"/>
<path d="M0 0 C1.051875 0.185625 1.051875 0.185625 2.125 0.375 C2.74375 0.58125 3.3625 0.7875 4 1 C4.33 1.99 4.66 2.98 5 4 C-1.27 3.34 -7.54 2.68 -14 2 C-11.17457671 0.11638447 -10.18940682 -0.31902686 -7 -0.6875 C-5.9790625 -0.81705078 -5.9790625 -0.81705078 -4.9375 -0.94921875 C-3 -1 -3 -1 0 0 Z " fill="#F2CEC8" transform="translate(283,189)"/>
<path d="M0 0 C1.42944945 2.35438733 2.08661261 3.48032433 1.625 6.25 C1.41875 6.8275 1.2125 7.405 1 8 C3.475 8.99 3.475 8.99 6 10 C5.34 10.66 4.68 11.32 4 12 C0.7 9.03 -2.6 6.06 -6 3 C-3 2 -3 2 -1 2 C-0.67 1.34 -0.34 0.68 0 0 Z " fill="#AB4230" transform="translate(265,276)"/>
<path d="M0 0 C0.33 0 0.66 0 1 0 C1.64622041 2.41656376 2.29199004 4.83324646 2.9375 7.25 C3.11990234 7.93191406 3.30230469 8.61382812 3.49023438 9.31640625 C4.35053121 12.53860894 5.20683134 15.76053223 6 19 C3 18 3 18 2.05078125 16.25 C0.20119781 10.61317429 -0.28237195 5.92981094 0 0 Z " fill="#FADED7" transform="translate(234,237)"/>
<path d="M0 0 C0.33 0 0.66 0 1 0 C1 4.29 1 8.58 1 13 C0.67 13 0.34 13 0 13 C-0.33 11.02 -0.66 9.04 -1 7 C-1.99 7.33 -2.98 7.66 -4 8 C-4.99 7.34 -5.98 6.68 -7 6 C-6.21625 5.566875 -5.4325 5.13375 -4.625 4.6875 C-1.78301625 3.10779753 -1.78301625 3.10779753 0 0 Z " fill="#282828" transform="translate(440,397)"/>
<path d="M0 0 C2.4375 0.375 2.4375 0.375 5 1 C5.33 1.66 5.66 2.32 6 3 C6.66 3 7.32 3 8 3 C8.33 2.34 8.66 1.68 9 1 C9 1.66 9 2.32 9 3 C9.66 3 10.32 3 11 3 C10.34 4.65 9.68 6.3 9 8 C5.27885429 5.68462045 2.38770339 3.71420527 0 0 Z " fill="#A83B27" transform="translate(277,294)"/>
<path d="M0 0 C0.66 0.66 1.32 1.32 2 2 C1.01 5.3 0.02 8.6 -1 12 C-4.00617269 8.99382731 -3.59585316 6.17618402 -4 2 C-2.68 2 -1.36 2 0 2 C0 1.34 0 0.68 0 0 Z " fill="#A63329" transform="translate(253,218)"/>
<path d="M0 0 C-3.96 2.64 -7.92 5.28 -12 8 C-12.66 7.67 -13.32 7.34 -14 7 C-12.71064081 5.85157077 -11.41843421 4.70633773 -10.125 3.5625 C-9.04605469 2.60537109 -9.04605469 2.60537109 -7.9453125 1.62890625 C-4.64519897 -1.13444183 -4.48886279 -1.1222157 0 0 Z " fill="#FCE2DC" transform="translate(270,209)"/>
<path d="M0 0 C2.66142497 2.46488897 4.63426384 5.20449652 6.6875 8.1875 C7.31011719 9.08855469 7.93273437 9.98960937 8.57421875 10.91796875 C9.04472656 11.60503906 9.51523437 12.29210937 10 13 C6.40800593 13 5.56396215 12.43367952 3 10 C1.953125 7.51953125 1.953125 7.51953125 1.25 4.8125 C1.00765625 3.91144531 0.7653125 3.01039063 0.515625 2.08203125 C0.34546875 1.39496094 0.1753125 0.70789063 0 0 Z " fill="#A54334" transform="translate(256,248)"/>
<path d="M0 0 C0.639375 0.144375 1.27875 0.28875 1.9375 0.4375 C5.93844788 1.17236798 9.95504896 1.58581111 14 2 C14 2.66 14 3.32 14 4 C9.38 4 4.76 4 0 4 C0.99 3.67 1.98 3.34 3 3 C3 2.34 3 1.68 3 1 C2.01 0.67 1.02 0.34 0 0 Z " fill="#A93023" transform="translate(322,243)"/>
<path d="M0 0 C2.31 0.33 4.62 0.66 7 1 C7 5.95 7 10.9 7 16 C6.67 16 6.34 16 6 16 C5.86722656 15.15695313 5.73445313 14.31390625 5.59765625 13.4453125 C5.42105469 12.34960938 5.24445313 11.25390625 5.0625 10.125 C4.88847656 9.03445312 4.71445312 7.94390625 4.53515625 6.8203125 C4.14448841 4.06178454 4.14448841 4.06178454 3 2 C2.01 1.34 1.02 0.68 0 0 Z " fill="#FEEEE9" transform="translate(272,208)"/>
<path d="M0 0 C0.66 0.33 1.32 0.66 2 1 C-1.3 3.97 -4.6 6.94 -8 10 C-8.33 8.68 -8.66 7.36 -9 6 C-8.01 5.67 -7.02 5.34 -6 5 C-5.67 4.34 -5.34 3.68 -5 3 C-4.34 3 -3.68 3 -3 3 C-3 2.34 -3 1.68 -3 1 C-2.01 0.67 -1.02 0.34 0 0 Z " fill="#9C4334" transform="translate(318,297)"/>
<path d="M0 0 C1.34173403 0.92543709 2.67320159 1.86577405 4 2.8125 C5.11375 3.59560547 5.11375 3.59560547 6.25 4.39453125 C6.8275 4.92433594 7.405 5.45414062 8 6 C8 6.99 8 7.98 8 9 C7.67 8.34 7.34 7.68 7 7 C6.01 7.33 5.02 7.66 4 8 C4 7.34 4 6.68 4 6 C3.34 6 2.68 6 2 6 C2 5.34 2 4.68 2 4 C1.34 4 0.68 4 0 4 C0 2.68 0 1.36 0 0 Z " fill="#FAECE2" transform="translate(260,280)"/>
<path d="M0 0 C-0.66 1.65 -1.32 3.3 -2 5 C-5.875 3.25 -5.875 3.25 -7 1 C-3.375 -1.125 -3.375 -1.125 0 0 Z " fill="#AD432E" transform="translate(279,289)"/>
<path d="M0 0 C3.3 0 6.6 0 10 0 C11 3 11 3 10.0625 5.1875 C9.711875 5.785625 9.36125 6.38375 9 7 C8.34 7 7.68 7 7 7 C7.33 5.02 7.66 3.04 8 1 C5.36 1 2.72 1 0 1 C0 0.67 0 0.34 0 0 Z " fill="#9B3721" transform="translate(336,246)"/>
<path d="M0 0 C2.20651618 3.30977427 2.44592388 4.16505462 2 8 C0.5 11.3125 0.5 11.3125 -1 14 C-2.13732426 10.59598052 -1.83989957 8.22543336 -1.0625 4.75 C-0.86785156 3.85796875 -0.67320312 2.9659375 -0.47265625 2.046875 C-0.31667969 1.37140625 -0.16070312 0.6959375 0 0 Z " fill="#F9E6DD" transform="translate(366,232)"/>
<path d="M0 0 C7.42857143 1 7.42857143 1 11 2 C11.33 3.65 11.66 5.3 12 7 C8.04 5.02 4.08 3.04 0 1 C0 0.67 0 0.34 0 0 Z " fill="#FAE0D5" transform="translate(340,192)"/>
<path d="M0 0 C2.31 0.33 4.62 0.66 7 1 C7.33 1.99 7.66 2.98 8 4 C5.36 3.67 2.72 3.34 0 3 C0 2.01 0 1.02 0 0 Z " fill="#F0FEFB" transform="translate(268,184)"/>
<path d="M0 0 C1.32 0.33 2.64 0.66 4 1 C1.48169253 4.12270126 0.2738451 4.94523098 -3.75 5.75 C-5.35875 5.87375 -5.35875 5.87375 -7 6 C-4 4 -4 4 -1 4 C-0.67 2.68 -0.34 1.36 0 0 Z " fill="#9B3928" transform="translate(305,306)"/>
<path d="M0 0 C0.33 0.66 0.66 1.32 1 2 C0.34 2 -0.32 2 -1 2 C-0.67 2.99 -0.34 3.98 0 5 C-2.64 5 -5.28 5 -8 5 C-8.33 4.01 -8.66 3.02 -9 2 C-8.2575 2.226875 -7.515 2.45375 -6.75 2.6875 C-3.94085007 3.29476698 -3.94085007 3.29476698 -1.6875 1.5625 C-1.130625 1.046875 -0.57375 0.53125 0 0 Z " fill="#A04432" transform="translate(305,287)"/>
<path d="M0 0 C0.99 0.33 1.98 0.66 3 1 C2.67 1.66 2.34 2.32 2 3 C2.99 3 3.98 3 5 3 C5.33 4.65 5.66 6.3 6 8 C3.36 6.02 0.72 4.04 -2 2 C-1.34 1.34 -0.68 0.68 0 0 Z " fill="#9F3D2E" transform="translate(338,208)"/>
<path d="M0 0 C0.598125 0.350625 1.19625 0.70125 1.8125 1.0625 C1.4825 2.0525 1.1525 3.0425 0.8125 4.0625 C-1.1675 3.4025 -3.1475 2.7425 -5.1875 2.0625 C-5.1875 1.4025 -5.1875 0.7425 -5.1875 0.0625 C-2.1875 -0.9375 -2.1875 -0.9375 0 0 Z " fill="#BB2618" transform="translate(345.1875,196.9375)"/>
<path d="M0 0 C2.97 1.65 5.94 3.3 9 5 C8.01 5.495 8.01 5.495 7 6 C6.67 6.66 6.34 7.32 6 8 C1.125 3.375 1.125 3.375 0 0 Z " fill="#F9E1D5" transform="translate(279,261)"/>
<path d="M0 0 C0.33 0.66 0.66 1.32 1 2 C1.66 2 2.32 2 3 2 C3 2.99 3 3.98 3 5 C0.5 6.6875 0.5 6.6875 -2 8 C-1.34 5.36 -0.68 2.72 0 0 Z M3 0 C3.66 0.66 4.32 1.32 5 2 C4.34 2 3.68 2 3 2 C3 1.34 3 0.68 3 0 Z " fill="#F7E4E0" transform="translate(363,246)"/>
<path d="M0 0 C0.66 0.66 1.32 1.32 2 2 C-0.64 3.65 -3.28 5.3 -6 7 C-5.25 4.0625 -5.25 4.0625 -4 1 C-2 0 -2 0 0 0 Z " fill="#F9EBDB" transform="translate(252,194)"/>
<path d="M0 0 C1.32 0.66 2.64 1.32 4 2 C2.35 3.65 0.7 5.3 -1 7 C-1.04254356 5.00045254 -1.04080783 2.99958364 -1 1 C-0.67 0.67 -0.34 0.34 0 0 Z " fill="#0F0F0F" transform="translate(490,395)"/>
<path d="M0 0 C1 2 1 2 0.4375 4.0625 C-1 6 -1 6 -4.125 6.75 C-5.548125 6.87375 -5.548125 6.87375 -7 7 C-4.66666667 4.66666667 -2.33333333 2.33333333 0 0 Z " fill="#FBE1D9" transform="translate(313,303)"/>
<path d="M0 0 C0.33 0.66 0.66 1.32 1 2 C0.06421005 4.35981813 -0.93347808 6.69631264 -2 9 C-2.33 9 -2.66 9 -3 9 C-3 6.36 -3 3.72 -3 1 C-2.01 0.67 -1.02 0.34 0 0 Z " fill="#9B3A2D" transform="translate(362,247)"/>
<path d="M0 0 C2.95183101 2.95183101 3.08663988 5.95511947 4 10 C3.01 10 2.02 10 1 10 C0.67 6.7 0.34 3.4 0 0 Z " fill="#A14134" transform="translate(360,210)"/>
<path d="M0 0 C3.63 0 7.26 0 11 0 C10.67 0.99 10.34 1.98 10 3 C8.68 3 7.36 3 6 3 C6 2.34 6 1.68 6 1 C4.02 1 2.04 1 0 1 C0 0.67 0 0.34 0 0 Z " fill="#323232" transform="translate(242,407)"/>
<path d="M0 0 C3.36591866 1.44253657 5.51047079 3.33264727 8 6 C4.06830895 6 2.83572772 4.60580385 0 2 C0 1.34 0 0.68 0 0 Z " fill="#A73F35" transform="translate(286,281)"/>
<path d="M0 0 C2.475 0.495 2.475 0.495 5 1 C5.33 1.99 5.66 2.98 6 4 C6.66 4 7.32 4 8 4 C7.67 4.99 7.34 5.98 7 7 C5.83040013 6.02433888 4.66438823 5.044375 3.5 4.0625 C2.8503125 3.51722656 2.200625 2.97195313 1.53125 2.41015625 C1.0259375 1.94480469 0.520625 1.47945313 0 1 C0 0.67 0 0.34 0 0 Z " fill="#F7D9D4" transform="translate(279,274)"/>
<path d="M0 0 C-2.36292656 2.52588702 -3.66462511 3.88820837 -7 5 C-7 3.68 -7 2.36 -7 1 C-4.53721199 -0.231394 -2.7204945 -0.07159196 0 0 Z " fill="#A54238" transform="translate(313,267)"/>
<path d="M0 0 C0.33 0.99 0.66 1.98 1 3 C-0.4375 5.6875 -0.4375 5.6875 -2 8 C-2.99 7.34 -3.98 6.68 -5 6 C-3.35 4.02 -1.7 2.04 0 0 Z " fill="#A34131" transform="translate(342,251)"/>
<path d="M0 0 C1.4540625 0.0309375 1.4540625 0.0309375 2.9375 0.0625 C1.2875 1.7125 -0.3625 3.3625 -2.0625 5.0625 C-2.7225 3.7425 -3.3825 2.4225 -4.0625 1.0625 C-3.0625 0.0625 -3.0625 0.0625 0 0 Z " fill="#FCEBE3" transform="translate(317.0625,273.9375)"/>
<path d="M0 0 C5.57142857 5.14285714 5.57142857 5.14285714 6 9 C1.3125 5.484375 1.3125 5.484375 0 4 C0 2.68 0 1.36 0 0 Z " fill="#F9E5DF" transform="translate(248,268)"/>
<path d="M0 0 C2.97 0.495 2.97 0.495 6 1 C6 3 6 5 6 7 C1.125 2.25 1.125 2.25 0 0 Z " fill="#A94036" transform="translate(247,266)"/>
<path d="M0 0 C2.31 1.98 4.62 3.96 7 6 C3.09161134 6 1.88405893 4.49432124 -1 2 C-0.67 1.34 -0.34 0.68 0 0 Z " fill="#FEE3DC" transform="translate(337,210)"/>
</svg>
